Coordinates
version=1
nRows=29
nColumns=24
inDegrees=yes

Units are S.I. units (second, meters, Newtons, ...)
Angles are in degrees.

endheader
time	pelvis_tilt	pelvis_list	pelvis_rotation	pelvis_tx	pelvis_ty	pelvis_tz	hip_flexion_r	hip_adduction_r	hip_rotation_r	knee_angle_r	ankle_angle_r	subtalar_angle_r	mtp_angle_r	hip_flexion_l	hip_adduction_l	hip_rotation_l	knee_angle_l	ankle_angle_l	subtalar_angle_l	mtp_angle_l	lumbar_extension	lumbar_bending	lumbar_rotation
      1.38850000	      1.71220838	      0.57368060	     -3.07990899	      0.18513980	      1.01968009	      0.27934933	     14.18363763	     -5.62029255	     -6.35031669	    -67.64610169	     -0.45686262	    -10.77520425	     -2.56219105	      9.15121007	      1.92075119	     -8.32294108	    -11.30719626	     -1.46981568	    -14.65729452	     -3.15191764	    -12.70019242	     -3.02220044	      4.12865189
      1.39266667	      1.76098079	      0.39596791	     -2.75797478	      0.18987086	      1.02056190	      0.27834340	     14.61304287	     -5.46375955	     -6.72234477	    -67.32755957	     -0.24208633	    -10.72177731	     -2.76632676	      8.75020134	      1.83398597	     -8.03313375	    -11.19675212	     -1.25291792	    -14.44239472	     -3.17156039	    -12.84422855	     -2.71990185	      3.75705467
      1.39683333	      1.83693575	      0.24711693	     -2.49439135	      0.19463206	      1.02147244	      0.27745241	     15.01212535	     -5.32635878	     -7.04276651	    -66.95531777	     -0.01617399	    -10.72573452	     -3.00021553	      8.28708519	      1.77075616	     -7.79496367	    -11.01520992	     -1.13406220	    -14.35493620	     -3.19758949	    -12.99642247	     -2.46459799	      3.46681109
      1.40100000	      1.89711129	      0.11581441	     -2.23983792	      0.19936644	      1.02232858	      0.27661020	     15.42414292	     -5.20410761	     -7.35847300	    -66.53351547	      0.19194942	    -10.77290485	     -3.33140360	      7.84087677	      1.71819249	     -7.55804255	    -10.82785300	     -1.02238173	    -14.26780779	     -3.23680238	    -13.13601596	     -2.24673070	      3.17385259
      1.40516667	      1.91862109	     -0.02328969	     -2.03897707	      0.20413285	      1.02309979	      0.27591987	     15.87353664	     -5.05384897	     -7.62319420	    -66.05480189	      0.39156401	    -10.70344175	     -3.48343951	      7.43391972	      1.63204208	     -7.42566618	    -10.65246657	     -0.86399730	    -14.08126194	     -3.25139888	    -13.21319252	     -2.03301331	      3.05084638
      1.40933333	      1.98786955	     -0.17488840	     -1.79717166	      0.20888689	      1.02394166	      0.27514030	     16.23637438	     -4.91019062	     -7.94689318	    -65.49240622	      0.57431510	    -10.69994569	     -3.64932712	      6.97639200	      1.53956530	     -7.24761055	    -10.46863883	     -0.72537825	    -13.90331482	     -3.26629604	    -13.35123314	     -1.78910922	      2.80220480
      1.41350000	      2.06623656	     -0.31697884	     -1.54741638	      0.21366800	      1.02477765	      0.27433430	     16.56596316	     -4.78712386	     -8.29173904	    -64.86532328	      0.75586379	    -10.69324057	     -3.82149351	      6.50327328	      1.45799951	     -7.06707389	    -10.27093958	     -0.59878749	    -13.75704059	     -3.28079965	    -13.49008896	     -1.55103175	      2.56167721
      1.41766667	      2.18441516	     -0.45708071	     -1.28367707	      0.21840326	      1.02565077	      0.27350997	     16.83512317	     -4.67349597	     -8.65794978	    -64.17935432	      0.93600342	    -10.72342535	     -4.04665150	      5.98300137	      1.37953538	     -6.84425967	    -10.05382602	     -0.48631618	    -13.61779924	     -3.30042255	    -13.69197967	     -1.31233212	      2.27038521
      1.42183333	      2.24537414	     -0.59427311	     -1.06648700	      0.22319735	      1.02640077	      0.27278608	     17.15682370	     -4.55110194	     -8.98424778	    -63.43956131	      1.08909594	    -10.66568908	     -4.18286462	      5.52464725	      1.28606042	     -6.72692685	     -9.85183642	     -0.34462190	    -13.43744688	     -3.30948575	    -13.79906704	     -1.07401830	      2.11572220
      1.42600000	      2.35995778	     -0.74211743	     -0.81301547	      0.22796207	      1.02722654	      0.27203796	     17.38749982	     -4.42284156	     -9.35203312	    -62.62206070	      1.23538837	    -10.67177045	     -4.34351831	      5.00701919	      1.18162572	     -6.54331947	     -9.63548273	     -0.22050683	    -13.25638420	     -3.31921192	    -13.98593944	     -0.84238609	      1.84168379
      1.43016667	      2.45940416	     -0.87644538	     -0.56275095	      0.23275516	      1.02799519	      0.27127041	     17.61600824	     -4.31660089	     -9.72745243	    -61.75206941	      1.38116085	    -10.66096299	     -4.49728443	      4.50371592	      1.08997243	     -6.37672154	     -9.41521782	     -0.09692516	    -13.09806727	     -3.32677607	    -14.14262372	     -0.60952546	      1.61788067
      1.43433333	      2.58818090	     -1.00861402	     -0.31934923	      0.23754528	      1.02878018	      0.27053603	     17.79295283	     -4.20932384	    -10.10052973	    -60.82239915	      1.52154394	    -10.65627539	     -4.64865003	      3.96545780	      0.99408635	     -6.22796060	     -9.18638973	      0.02115537	    -12.92793268	     -3.33250364	    -14.33245770	     -0.38320901	      1.37337735
      1.43850000	      2.73259919	     -1.13137504	     -0.07314901	      0.24234623	      1.02955460	      0.26978841	     17.93030732	     -4.11705111	    -10.48445797	    -59.83577242	      1.65187828	    -10.65336583	     -4.79997396	      3.40827637	      0.90588514	     -6.08162637	     -8.95149219	      0.14189337	    -12.76790285	     -3.33497967	    -14.53387977	     -0.15680404	      1.14333617
      1.44266667	      2.85249501	     -1.23844865	      0.16940126	      0.24713248	      1.03025251	      0.26909389	     18.08125459	     -4.03267982	    -10.85968935	    -58.80622351	      1.79913239	    -10.67468531	     -4.96367901	      2.87781967	      0.82837981	     -5.91775363	     -8.71244172	      0.24233760	    -12.62729190	     -3.33600106	    -14.71697005	      0.03328136	      0.90029952
      1.44683333	      2.97423214	     -1.35446512	      0.40578199	      0.25194271	      1.03092174	      0.26839994	     18.20615392	     -3.93976952	    -11.23982469	    -57.71144832	      1.90343612	    -10.66265135	     -5.10208380	      2.34921275	      0.73518027	     -5.79323525	     -8.48478075	      0.38095854	    -12.45189372	     -3.33263614	    -14.88826311	      0.24415899	      0.69821545
      1.45100000	      3.10016784	     -1.45083639	      0.63403374	      0.25676531	      1.03156212	      0.26774023	     18.30784263	     -3.86317222	    -11.61221457	    -56.57003498	      2.01815321	    -10.66195604	     -5.24071568	      1.80957215	      0.65921435	     -5.66573371	     -8.24243078	      0.49041343	    -12.30994604	     -3.32682497	    -15.06403978	      0.43083760	      0.46863882
      1.45516667	      3.20578042	     -1.54517916	      0.86834112	      0.26159158	      1.03213280	      0.26707394	     18.41022229	     -3.78994805	    -11.99602492	    -55.37672879	      2.12214397	    -10.66606467	     -5.37238357	      1.29826612	      0.58180577	     -5.53431147	     -8.01221333	      0.61463365	    -12.16075164	     -3.31764343	    -15.21541361	      0.61772025	      0.25661361
      1.45933333	      3.32864894	     -1.62574385	      1.09759773	      0.26641616	      1.03269265	      0.26643778	     18.47336017	     -3.72596715	    -12.37507698	    -54.13191310	      2.22373742	    -10.67215237	     -5.50856599	      0.76618372	      0.51429855	     -5.40836875	     -7.77601485	      0.73258426	    -12.02150808	     -3.30603711	    -15.38601973	      0.78763926	      0.02977868
      1.46350000	      3.45678684	     -1.69475276	      1.31327909	      0.27123926	      1.03321280	      0.26583698	     18.51494883	     -3.66716302	    -12.74157321	    -52.84302082	      2.32275133	    -10.67970777	     -5.64278371	      0.22731252	      0.45459313	     -5.29395657	     -7.53802129	      0.84682697	    -11.88789505	     -3.29158449	    -15.56192548	      0.94019155	     -0.17326017
      1.46766667	      3.55133444	     -1.75371095	      1.53035742	      0.27607074	      1.03364416	      0.26525651	     18.57282791	     -3.61536083	    -13.10965239	    -51.50749408	      2.41140880	    -10.69678047	     -5.77554011	     -0.26903976	      0.40126732	     -5.17650414	     -7.31429494	      0.97345275	    -11.75017441	     -3.27395500	    -15.69834942	      1.07951733	     -0.38153238
      1.47183333	      3.67023790	     -1.79299347	      1.74397904	      0.28090956	      1.03407435	      0.26468803	     18.58200404	     -3.58098009	    -13.47635919	    -50.12677442	      2.53156836	    -10.70844338	     -5.93928166	     -0.79902851	      0.36654646	     -5.05648255	     -7.07363787	      1.06014105	    -11.64105172	     -3.25108460	    -15.86108268	      1.19972413	     -0.60904274
      1.47600000	      3.70299896	     -1.82740358	      1.93231137	      0.28574905	      1.03431830	      0.26420871	     18.67728043	     -3.53745720	    -13.81090121	    -48.70854510	      2.57782689	    -10.72924266	     -6.05784066	     -1.22115257	      0.33085845	     -4.96479097	     -6.87420643	      1.22353490	    -11.49604400	     -3.23088577	    -15.92203151	      1.30076315	     -0.75299826
      1.48016667	      3.77854479	     -1.85316402	      2.11540568	      0.29060355	      1.03460211	      0.26373975	     18.69847749	     -3.49702873	    -14.14410430	    -47.23406730	      2.64243406	    -10.73373847	     -6.18270725	     -1.69905230	      0.30106693	     -4.87940166	     -6.65544242	      1.34891131	    -11.36509081	     -3.20918275	    -16.03315431	      1.39538399	     -0.95058582
      1.48433333	      3.82757659	     -1.86192462	      2.29753143	      0.29545835	      1.03479769	      0.26329726	     18.73126257	     -3.47016589	    -14.47450533	    -45.72333625	      2.70749132	    -10.74429578	     -6.30842595	     -2.14406324	      0.28692154	     -4.78669523	     -6.44739012	      1.48207499	    -11.23556883	     -3.18629760	    -16.11564597	      1.46591931	     -1.12236994
      1.48850000	      3.86412850	     -1.85836705	      2.45748160	      0.30032679	      1.03493276	      0.26292337	     18.76138477	     -3.44236807	    -14.77973566	    -44.17155145	      2.76063992	    -10.75043782	     -6.42879994	     -2.57723202	      0.28165577	     -4.72070051	     -6.24241589	      1.61460486	    -11.10108474	     -3.16383849	    -16.17919227	      1.51609890	     -1.27979580
      1.49266667	      3.87719284	     -1.84112105	      2.60676024	      0.30519548	      1.03499044	      0.26258330	     18.79966442	     -3.42108638	    -15.07101113	    -42.58023770	      2.80557377	    -10.75616920	     -6.54393523	     -2.98356433	      0.28930336	     -4.65657595	     -6.04489712	      1.75308338	    -10.96461798	     -3.14189720	    -16.22013398	      1.54597569	     -1.42816482
      1.49683333	      3.86731281	     -1.80951603	      2.74687188	      0.31007445	      1.03497239	      0.26228677	     18.84527958	     -3.40672451	    -15.34833494	    -40.95155004	      2.84748206	    -10.74491591	     -6.65603791	     -3.36391090	      0.30983755	     -4.60461152	     -5.85469317	      1.89108736	    -10.82488523	     -3.12034573	    -16.23182870	      1.55379621	     -1.57316975
      1.50100000	      3.83311807	     -1.76839771	      2.87326820	      0.31497175	      1.03488127	      0.26203330	     18.89821721	     -3.39246915	    -15.60972232	    -39.28255286	      2.87317000	    -10.73080981	     -6.76085451	     -3.71891235	      0.33885310	     -4.56401203	     -5.66858570	      2.03318929	    -10.67961393	     -3.10049040	    -16.21733702	      1.54652679	     -1.70145825
      1.50516667	      3.81779434	     -1.71638651	      2.98765937	      0.31986388	      1.03477621	      0.26183794	     18.91017501	     -3.37498195	    -15.85135994	    -37.56756052	      2.89262874	    -10.70051198	     -6.86383335	     -4.09332367	      0.37393180	     -4.54527250	     -5.49018790	      2.18182981	    -10.51543299	     -3.08151971	    -16.21784880	      1.52435713	     -1.82414042
